<svg width="20" height="21" viewBox="0 0 20 21" fill="none" xmlns="http://www.w3.org/2000/svg">
<g clip-path="url(#clip0_2203_333)">
<path d="M5.27444 20.0162C5.16931 20.0162 5.06418 19.9764 4.98469 19.8957C4.82444 19.7354 4.82444 19.4752 4.98469 19.3149L14.495 9.81746C14.6552 9.6572 14.9155 9.6572 15.0757 9.81746C15.236 9.97771 15.236 10.238 15.0757 10.3982L5.56418 19.8957C5.48341 19.9764 5.37828 20.0162 5.27444 20.0162Z" fill="#2E2521"/>
<path d="M14.7833 10.5181C14.6782 10.5181 14.573 10.4784 14.4936 10.3976L4.92561 0.818149C4.76536 0.657893 4.76536 0.397636 4.92561 0.23738C5.08587 0.0771234 5.34612 0.0771234 5.50638 0.23738L15.073 9.81687C15.2333 9.97712 15.2333 10.2374 15.073 10.3976C14.9936 10.4784 14.8884 10.5181 14.7833 10.5181Z" fill="#2E2521"/>
</g>
<defs>
<clipPath id="clip0_2203_333">
<rect width="20" height="20" fill="white" transform="translate(0 0.0664062)"/>
</clipPath>
</defs>
</svg>
