<svg width="20" height="21" viewBox="0 0 20 21" fill="none" xmlns="http://www.w3.org/2000/svg">
<g clip-path="url(#clip0_2203_339)">
<path d="M14.7268 20.0162C14.8319 20.0162 14.937 19.9764 15.0165 19.8957C15.1768 19.7354 15.1768 19.4752 15.0165 19.3149L5.50627 9.81746C5.34601 9.6572 5.08576 9.6572 4.9255 9.81746C4.76524 9.97771 4.76524 10.238 4.9255 10.3982L14.437 19.8957C14.5178 19.9764 14.6229 20.0162 14.7268 20.0162Z" fill="#AFAFAF" fill-opacity="0.5"/>
<path d="M5.21792 10.5181C5.32305 10.5181 5.42817 10.4784 5.50766 10.3976L15.0756 0.818149C15.2359 0.657893 15.2359 0.397636 15.0756 0.23738C14.9154 0.0771234 14.6551 0.0771234 14.4948 0.23738L4.92817 9.81687C4.76792 9.97712 4.76792 10.2374 4.92817 10.3976C5.00766 10.4784 5.11279 10.5181 5.21792 10.5181Z" fill="#AFAFAF" fill-opacity="0.5"/>
</g>
<defs>
<clipPath id="clip0_2203_339">
<rect width="20" height="20" fill="white" transform="translate(0 0.0664062)"/>
</clipPath>
</defs>
</svg>
