<svg width="20" height="21" viewBox="0 0 20 21" fill="none" xmlns="http://www.w3.org/2000/svg">
<g clip-path="url(#clip0_2203_291)">
<path d="M0.46145 20.0146C0.356321 20.0146 0.251193 19.9749 0.171706 19.8941C0.0114496 19.7339 0.0114496 19.4736 0.171706 19.3133L18.5473 0.9377H13.8025C13.5756 0.9377 13.3922 0.754367 13.3922 0.527444C13.3922 0.300521 13.5756 0.117188 13.8025 0.117188H19.5384C19.7038 0.117188 19.8538 0.217187 19.9179 0.371034C19.982 0.52488 19.9461 0.700521 19.8294 0.81847L0.752475 19.8954C0.671706 19.9749 0.566578 20.0146 0.46145 20.0146Z" fill="#2E2521"/>
<path d="M19.5384 6.66334C19.3115 6.66334 19.1282 6.48001 19.1282 6.25309V0.527444C19.1282 0.300521 19.3115 0.117188 19.5384 0.117188C19.7654 0.117188 19.9487 0.300521 19.9487 0.527444V6.25309C19.9487 6.48001 19.7654 6.66334 19.5384 6.66334Z" fill="#2E2521"/>
</g>
<defs>
<clipPath id="clip0_2203_291">
<rect width="20" height="20" fill="white" transform="translate(0 0.0664062)"/>
</clipPath>
</defs>
</svg>
